# xmcd
#
# Track frame offsets:
#	150
#	12754
#	26549
#	43414
#	57205
#	70532
#	86982
#	99798
#	118569
#	134195
#	148209
#	161216
#
# Disc length: 2448 seconds
#
# Revision: 0
# Processed by: cddbd v1.4PL0 Copyright (c) Steve Scherf et al.
# Submitted via: dBpowerAMP V4.0
#
DISCID=aa098e0c
DTITLE=Los Charros - Imbatibles
DYEAR=1999
DGENRE=Country
TTITLE0=La pollera colorada
TTITLE1=Porque porque
TTITLE2=Encontrarte
TTITLE3=Que te pasa
TTITLE4=Indiferente
TTITLE5=Aliviame
TTITLE6=Pienso en ti
TTITLE7=Por eso ahora
TTITLE8=La distancia
TTITLE9=Sin mi
TTITLE10=Hijo mio
TTITLE11=Cariño yo creo en ti
EXTD=editado por damianfo
EXTT0=
EXTT1=
EXTT2=
EXTT3=
EXTT4=
EXTT5=
EXTT6=
EXTT7=
EXTT8=
EXTT9=
EXTT10=
EXTT11=
PLAYORDER=
